<svg xmlns="http://www.w3.org/2000/svg" xml:space="preserve" viewBox="0 0 320 60">
<path fill="#0890FE" d="M3.7 43.3 18 0C7.4 5.1 0 15.9 0 28.5c0 5.4 1.3 10.4 3.7 14.8zM43.3 57.1l-13-43.3h-.5L16.7 57.1C20.7 59 25.3 60 30 60c4.8 0 9.3-1.1 13.3-2.9zM42 0l14.3 43.3c2.4-4.4 3.7-9.5 3.7-14.9C60 15.9 52.6 5.1 42 0z"/>
<path fill="#FFF" d="M112.3 51.9h12.8L110.7 8.1H94.4L80 51.9h12.8l2.5-8.4h14.4l2.6 8.4zM98 34.6l4.4-14.5h.3l4.4 14.5H98zM159.3 22.6c-.2-.8-.5-1.4-.9-2-.4-.6-.9-1.1-1.5-1.5-.6-.4-1.3-.7-2.1-.9-.8-.2-1.6-.3-2.5-.3-2 0-3.7.5-5.1 1.4-1.4 1-2.5 2.3-3.2 4.1-.7 1.8-1.1 4-1.1 6.5 0 2.6.3 4.8 1 6.6.7 1.8 1.7 3.2 3.1 4.2 1.4 1 3.1 1.5 5.2 1.5 1.8 0 3.3-.3 4.5-.8 1.2-.5 2.1-1.3 2.7-2.2.6-1 .9-2.1.9-3.4l2.1.2h-10v-8.5h19.4v6.1c0 4-.8 7.4-2.5 10.2-1.7 2.8-4 5-7 6.5-2.9 1.5-6.3 2.2-10.2 2.2-4.3 0-8-.9-11.2-2.7-3.2-1.8-5.7-4.4-7.5-7.7-1.8-3.4-2.7-7.3-2.7-12 0-3.6.5-6.8 1.6-9.6s2.7-5.2 4.6-7.1c2-1.9 4.2-3.4 6.8-4.4 2.6-1 5.3-1.5 8.3-1.5 2.6 0 5 .4 7.2 1.1 2.2.7 4.2 1.8 5.9 3.1 1.7 1.3 3.1 2.9 4.2 4.8 1.1 1.8 1.7 3.9 1.9 6.1h-11.9zM223.4 30c0 4.9-.9 9-2.8 12.3-1.9 3.3-4.5 5.9-7.7 7.6-3.2 1.7-6.8 2.6-10.8 2.6-4 0-7.6-.9-10.8-2.6-3.2-1.7-5.8-4.3-7.7-7.6-1.9-3.4-2.8-7.4-2.8-12.3s.9-9 2.8-12.3c1.9-3.4 4.4-5.9 7.7-7.6 3.2-1.7 6.8-2.6 10.8-2.6 4 0 7.6.9 10.8 2.6 3.2 1.7 5.8 4.2 7.7 7.6 1.9 3.3 2.8 7.4 2.8 12.3zm-12.2 0c0-2.6-.3-4.8-1-6.6-.7-1.8-1.7-3.2-3.1-4.1-1.3-.9-3-1.4-5-1.4s-3.6.5-5 1.4c-1.3.9-2.4 2.3-3.1 4.1-.7 1.8-1 4-1 6.6s.3 4.8 1 6.7c.7 1.8 1.7 3.2 3.1 4.1 1.4.9 3 1.4 5 1.4s3.6-.5 5-1.4c1.4-.9 2.4-2.3 3.1-4.1.6-1.9 1-4.1 1-6.7zM256.2 51.9h12.9l-8.9-16.4c2.3-1.1 4.1-2.6 5.4-4.6 1.4-2.2 2.1-4.8 2.1-7.9 0-3.1-.7-5.8-2-8-1.4-2.2-3.2-3.9-5.7-5.1-2.4-1.2-5.3-1.8-8.5-1.8h-18.9v43.8h11.9V37.4h4.1l7.6 14.5zm-11.8-34.3h4.2c1.4 0 2.6.2 3.6.6 1 .4 1.8 1 2.3 1.8.5.8.8 1.8.8 3.1 0 1.2-.3 2.2-.8 3-.5.8-1.3 1.3-2.3 1.7-1 .3-2.2.5-3.6.5h-4.2V17.6zM307.2 51.9H320L305.6 8.1h-16.2L275 51.9h12.8l2.5-8.4h14.4l2.5 8.4zm-14.3-17.3 4.4-14.5h.3l4.4 14.5h-9.1z"/>
</svg>